<svg xmlns="http://www.w3.org/2000/svg" viewBox="0 0 513.86 448.33"><defs><style>.cls-1{fill:#fff;}</style></defs><g id="Capa_2" data-name="Capa 2"><g id="Capa_1-2" data-name="Capa 1"><path class="cls-1" d="M513.66,127.84c-6.21,3.14-12,6.08-17.82,9Q452,158.75,408.08,180.66,366.53,201.45,325,222.28q-32.82,16.41-65.65,32.8a5,5,0,0,1-5.07-.07q-114-57.09-228.08-114.08c-8.58-4.29-17.14-8.6-26.16-13.12,2.21-1.14,4.06-2.11,5.92-3L185.63,34.94Q220.3,17.62,255,.39a4.92,4.92,0,0,1,3.84,0Q372.28,57,485.63,113.71q12.62,6.32,25.24,12.63C511.69,126.74,512.5,127.21,513.66,127.84Zm-85.43.08c-.54-.5-.65-.67-.82-.75q-36-18-71.92-35.9Q307.3,67.18,259.16,43a4.63,4.63,0,0,0-4.79.11c-5.18,2.73-10.43,5.31-15.67,7.93L173.52,83.59l-77,38.5c-3.63,1.81-7.22,3.68-11.17,5.69,2.07,1.07,3.67,1.92,5.3,2.73L167.68,169q43.55,21.78,87.11,43.5a5.37,5.37,0,0,0,4.2,0q41.68-20.67,83.28-41.56,32-16,63.9-32C413.47,135.36,420.73,131.69,428.23,127.92Z"/><path class="cls-1" d="M513.29,320.75c-7.11,3.58-14.18,7.16-21.27,10.71q-44,22-88,44l-77.91,38.95q-33,16.5-66,33.08a6.54,6.54,0,0,1-6.66,0q-38.07-19.22-76.22-38.24-37.89-18.95-75.8-37.84Q52.1,346.65,2.75,321.94c-.75-.38-1.48-.8-2.68-1.46,6.32-3.19,12.26-6.2,18.22-9.18,10.31-5.16,20.61-10.35,31-15.37a5.41,5.41,0,0,1,4.18-.06q56.13,27.9,112.17,56,44.43,22.23,88.84,44.52a4.71,4.71,0,0,0,4.77,0q54.47-27.3,109-54.5,46.25-23.11,92.49-46.24a3.76,3.76,0,0,1,2.9-.16q24.66,12.21,49.24,24.6C513,320.13,513.06,320.36,513.29,320.75Z"/><path class="cls-1" d="M513.86,224.16,480,241.06,377.48,292.34l-94.57,47.25c-8.16,4.08-16.29,8.22-24.49,12.21a4,4,0,0,1-3.12-.06q-34.32-17-68.57-34.18-32.46-16.21-64.91-32.42Q79.58,264,37.35,242.84C25.08,236.7,12.8,230.6,0,224.22c2.67-1.38,5-2.61,7.28-3.77,14.07-7,28.13-14.09,42.26-21a5,5,0,0,1,3.9.08q69.41,34.57,138.72,69.3,31.18,15.6,62.38,31.19a4.47,4.47,0,0,0,4.54,0q91.85-46,183.74-91.89c5.85-2.92,11.68-5.9,17.57-8.74a4.11,4.11,0,0,1,3.13-.26C480.13,207.34,496.67,215.6,513.86,224.16Z"/><path class="cls-1" d="M428.23,127.92c-7.49,3.77-14.76,7.44-22,11.08l-63.9,32Q300.67,191.78,259,212.52a5.37,5.37,0,0,1-4.2,0q-43.6-21.65-87.11-43.5l-77-38.5c-1.63-.81-3.23-1.67-5.3-2.73,3.94-2,7.54-3.88,11.17-5.69l77-38.5,65.18-32.55c5.24-2.62,10.49-5.2,15.67-7.93a4.61,4.61,0,0,1,4.79-.11q48.13,24.21,96.33,48.27,36,18,71.92,35.9A7.54,7.54,0,0,1,428.23,127.92Z"/></g></g></svg>