<?xml version="1.0" encoding="utf-8"?>
<!-- Generator: Adobe Illustrator 24.1.2, SVG Export Plug-In . SVG Version: 6.00 Build 0)  -->
<svg version="1.1" id="Capa_1" xmlns="http://www.w3.org/2000/svg" xmlns:xlink="http://www.w3.org/1999/xlink" x="0px" y="0px"
	 viewBox="0 0 640 480" style="enable-background:new 0 0 640 480;" xml:space="preserve">
<style type="text/css">
	.st0{fill:#007BFF;}
</style>
<g>
	<path class="st0" d="M576.77,143.48c-6.21,3.14-12.01,6.08-17.82,8.99c-29.25,14.61-58.52,29.2-87.76,43.83
		c-27.7,13.86-55.38,27.76-83.09,41.62c-21.88,10.94-43.79,21.82-65.65,32.8c-1.85,0.93-3.26,0.84-5.07-0.07
		c-76.01-38.06-152.05-76.06-228.08-114.08c-8.58-4.29-17.14-8.6-26.16-13.12c2.21-1.14,4.06-2.11,5.92-3.04
		c59.89-29.95,119.78-59.89,179.68-89.83c23.11-11.55,46.23-23.1,69.39-34.55c1.05-0.52,2.8-0.51,3.84,0.01
		c75.61,37.72,151.19,75.52,226.77,113.31c8.41,4.21,16.83,8.41,25.24,12.63C574.8,142.38,575.61,142.85,576.77,143.48z
		 M491.34,143.56c-0.54-0.5-0.65-0.67-0.82-0.75c-23.97-11.97-47.95-23.92-71.92-35.9c-32.13-16.06-64.25-32.14-96.33-48.27
		c-1.78-0.9-3.11-0.77-4.79,0.11c-5.18,2.73-10.43,5.31-15.67,7.93c-21.72,10.85-43.46,21.7-65.18,32.55
		c-25.68,12.83-51.35,25.66-77.02,38.5c-3.63,1.81-7.22,3.68-11.17,5.69c2.07,1.07,3.67,1.92,5.3,2.73
		c25.68,12.83,51.37,25.66,77.05,38.5c29.03,14.52,58.04,29.07,87.11,43.5c1.14,0.57,3.06,0.57,4.2,0
		c27.79-13.78,55.53-27.68,83.28-41.56c21.3-10.65,42.61-21.3,63.9-31.96C476.58,151,483.84,147.33,491.34,143.56z"/>
	<path class="st0" d="M576.4,336.39c-7.11,3.58-14.18,7.16-21.27,10.71c-29.32,14.66-58.65,29.3-87.97,43.95
		c-25.97,12.98-51.94,25.96-77.91,38.95c-22.01,11-44.03,21.98-65.98,33.08c-2.42,1.23-4.29,1.16-6.66-0.04
		c-25.38-12.81-50.8-25.52-76.22-38.24c-25.26-12.63-50.54-25.22-75.8-37.84c-32.92-16.45-65.82-32.92-98.73-49.38
		c-0.75-0.38-1.48-0.8-2.68-1.46c6.32-3.19,12.26-6.2,18.22-9.18c10.31-5.16,20.61-10.35,31-15.37c1.16-0.56,3.05-0.62,4.18-0.06
		c37.42,18.6,74.8,37.3,112.17,56c29.62,14.82,59.25,29.64,88.84,44.52c1.73,0.87,3.04,0.86,4.77,0c36.31-18.2,72.67-36.33,109-54.5
		c30.83-15.41,61.64-30.86,92.49-46.24c0.81-0.4,2.13-0.54,2.9-0.16c16.44,8.14,32.84,16.37,49.24,24.6
		C576.12,335.77,576.17,336,576.4,336.39z"/>
	<path class="st0" d="M576.97,239.8c-11.67,5.83-22.75,11.36-33.82,16.9c-34.19,17.09-68.37,34.19-102.56,51.28
		c-31.52,15.75-63.05,31.5-94.57,47.25c-8.16,4.08-16.29,8.22-24.49,12.21c-0.85,0.41-2.26,0.37-3.12-0.06
		c-22.88-11.35-45.72-22.77-68.57-34.18c-21.64-10.81-43.28-21.6-64.91-32.42c-28.16-14.09-56.31-28.21-84.47-42.3
		c-12.27-6.14-24.55-12.24-37.35-18.62c2.67-1.38,4.96-2.61,7.28-3.77c14.07-7.04,28.13-14.09,42.26-21.01
		c1.05-0.52,2.83-0.45,3.9,0.08c46.27,23.05,92.49,46.18,138.72,69.3c20.79,10.4,41.61,20.76,62.38,31.19
		c1.62,0.82,2.89,0.86,4.54,0.03c61.23-30.66,122.49-61.27,183.74-91.89c5.85-2.92,11.68-5.9,17.57-8.74
		c0.9-0.43,2.31-0.67,3.13-0.26C543.24,222.98,559.78,231.24,576.97,239.8z"/>
	<path class="st0" d="M491.34,143.56c-7.49,3.77-14.76,7.44-22.04,11.08c-21.3,10.66-42.6,21.3-63.9,31.96
		c-27.75,13.88-55.49,27.77-83.28,41.56c-1.14,0.57-3.06,0.57-4.2,0c-29.07-14.43-58.08-28.99-87.11-43.5
		c-25.68-12.84-51.37-25.66-77.05-38.5c-1.63-0.81-3.23-1.67-5.3-2.73c3.94-2.01,7.54-3.88,11.17-5.69
		c25.67-12.84,51.34-25.67,77.02-38.5c21.72-10.85,43.46-21.7,65.18-32.55c5.24-2.62,10.49-5.2,15.67-7.93
		c1.68-0.89,3-1.01,4.79-0.11c32.09,16.14,64.21,32.21,96.33,48.27c23.97,11.98,47.95,23.93,71.92,35.9
		C490.68,142.89,490.8,143.06,491.34,143.56z"/>
</g>
</svg>
